{
	"asset":{
		"generator":"Khronos glTF Blender I/O v3.5.30",
		"version":"2.0"
	},
	"scene":0,
	"scenes":[
		{
			"name":"Scene",
			"nodes":[
				0,
				1,
				2,
				3,
				4,
				5,
				6,
				7,
				8,
				9,
				10,
				11,
				12,
				13,
				14,
				15,
				16,
				17,
				18
			]
		}
	],
	"nodes":[
		{
			"mesh":0,
			"name":"Plane",
			"rotation":[
				0,
				0,
				-0.7071068286895752,
				0.7071068286895752
			],
			"scale":[
				1,
				1,
				5.337482452392578
			],
			"translation":[
				-0.9661250710487366,
				0.9810501933097839,
				0
			]
		},
		{
			"mesh":1,
			"name":"Plane.001",
			"scale":[
				0.7064169049263,
				1,
				5.012500762939453
			],
			"translation":[
				-0.29099613428115845,
				0.17190608382225037,
				0
			]
		},
		{
			"mesh":2,
			"name":"Plane.002",
			"scale":[
				0.7064169049263,
				1,
				5.337482452392578
			],
			"translation":[
				0.4712492823600769,
				0.07359635084867477,
				0
			]
		},
		{
			"mesh":3,
			"name":"Plane.003",
			"rotation":[
				0,
				0,
				-0.7071068286895752,
				0.7071068286895752
			],
			"scale":[
				1,
				1,
				5.337482452392578
			],
			"translation":[
				1.16206955909729,
				0.9810501933097839,
				0
			]
		},
		{
			"mesh":4,
			"name":"Plane.004",
			"rotation":[
				0.7071068286895752,
				0,
				0,
				0.7071068286895752
			],
			"scale":[
				0.439788281917572,
				1,
				0.3921404182910919
			],
			"translation":[
				-0.5163364410400391,
				0.5532840490341187,
				4.854487895965576
			]
		},
		{
			"mesh":5,
			"name":"Plane.005",
			"rotation":[
				0.7071068286895752,
				0,
				0,
				0.7071068286895752
			],
			"scale":[
				0.439788281917572,
				1,
				0.3921404182910919
			],
			"translation":[
				-0.5163364410400391,
				0.5532840490341187,
				-4.767446517944336
			]
		},
		{
			"mesh":6,
			"name":"Plane.006",
			"rotation":[
				0,
				-0.7071068286895752,
				0.7071068286895752,
				3.090862321641907e-08
			],
			"scale":[
				0.439788281917572,
				1,
				0.3921404182910919
			],
			"translation":[
				0.7183873653411865,
				0.4540750980377197,
				-5.098055362701416
			]
		},
		{
			"mesh":7,
			"name":"Plane.007",
			"rotation":[
				0,
				-0.7071068286895752,
				0.7071068286895752,
				3.090862321641907e-08
			],
			"scale":[
				0.439788281917572,
				1,
				0.3921404182910919
			],
			"translation":[
				0.7183873653411865,
				0.4540750980377197,
				5.2115349769592285
			]
		},
		{
			"mesh":8,
			"name":"Cube",
			"scale":[
				0.3856438994407654,
				0.16391900181770325,
				0.7626553773880005
			],
			"translation":[
				-5.398373603820801,
				0,
				0
			]
		},
		{
			"mesh":9,
			"name":"Plane.008",
			"rotation":[
				0,
				0,
				0.11924151331186295,
				0.9928653836250305
			],
			"scale":[
				0.26288238167762756,
				1,
				3.483370780944824
			],
			"translation":[
				-7.599228382110596,
				1.2161709070205688,
				0
			]
		},
		{
			"mesh":10,
			"name":"Plane.009",
			"rotation":[
				0,
				0,
				0.11924151331186295,
				0.9928653836250305
			],
			"scale":[
				0.26288238167762756,
				1,
				3.483370780944824
			],
			"translation":[
				-8.450647354125977,
				1.2161709070205688,
				0
			]
		},
		{
			"mesh":11,
			"name":"Plane.010",
			"rotation":[
				0.7071068286895752,
				0,
				0,
				0.7071068286895752
			],
			"scale":[
				0.16679444909095764,
				1,
				0.7903499007225037
			],
			"translation":[
				-7.668933868408203,
				0.5035036206245422,
				3.5818541049957275
			]
		},
		{
			"mesh":12,
			"name":"Plane.011",
			"rotation":[
				0.7071068286895752,
				0,
				0,
				0.7071068286895752
			],
			"scale":[
				0.16679444909095764,
				1,
				0.7903499007225037
			],
			"translation":[
				-7.668933868408203,
				0.46498769521713257,
				-3.539074182510376
			]
		},
		{
			"mesh":13,
			"name":"Plane.012",
			"rotation":[
				0.7071068286895752,
				0,
				0,
				0.7071068286895752
			],
			"scale":[
				0.16679444909095764,
				1,
				0.7903499007225037
			],
			"translation":[
				-8.475173950195312,
				0.4999634027481079,
				-3.538383722305298
			]
		},
		{
			"mesh":14,
			"name":"Plane.013",
			"rotation":[
				0.7071068286895752,
				0,
				0,
				0.7071068286895752
			],
			"scale":[
				0.16679444909095764,
				1,
				0.7903499007225037
			],
			"translation":[
				-8.516129493713379,
				0.5033217072486877,
				3.5818541049957275
			]
		},
		{
			"mesh":15,
			"name":"Cube.001",
			"scale":[
				0.05000000074505806,
				0.10000000149011612,
				5.2988600730896
			],
			"translation":[
				-0.7415511608123779,
				1.4095683097839355,
				0
			]
		},
		{
			"mesh":16,
			"name":"Cube.002",
			"scale":[
				0.20000000298023224,
				0.20000000298023224,
				1
			],
			"translation":[
				-0.7374442219734192,
				1.5593644380569458,
				0
			]
		},
		{
			"mesh":17,
			"name":"Cube.003",
			"scale":[
				0.05000000074505806,
				0.02500000037252903,
				5.2988600730896
			],
			"translation":[
				-0.9702906608581543,
				1.97696852684021,
				0
			]
		},
		{
			"mesh":18,
			"name":"Cube.004",
			"scale":[
				0.05000000074505806,
				0.02500000037252903,
				5.2988600730896
			],
			"translation":[
				1.1599568128585815,
				1.9845081567764282,
				0
			]
		}
	],
	"materials":[
		{
			"doubleSided":true,
			"name":"Material.001",
			"pbrMetallicRoughness":{
				"baseColorFactor":[
					0.800000011920929,
					0.800000011920929,
					0.800000011920929,
					1
				],
				"roughnessFactor":0
			}
		},
		{
			"doubleSided":true,
			"name":"Material.002",
			"pbrMetallicRoughness":{
				"baseColorFactor":[
					0.800000011920929,
					0.800000011920929,
					0.800000011920929,
					1
				],
				"roughnessFactor":0
			}
		},
		{
			"doubleSided":true,
			"name":"Material.003",
			"pbrMetallicRoughness":{
				"baseColorFactor":[
					0,
					0.007670062594115734,
					0.8000000715255737,
					1
				],
				"metallicFactor":0.6535433530807495,
				"roughnessFactor":0
			}
		}
	],
	"meshes":[
		{
			"name":"Plane",
			"primitives":[
				{
					"attributes":{
						"POSITION":0,
						"TEXCOORD_0":1,
						"NORMAL":2
					},
					"indices":3,
					"material":0
				}
			]
		},
		{
			"name":"Plane.001",
			"primitives":[
				{
					"attributes":{
						"POSITION":4,
						"TEXCOORD_0":5,
						"NORMAL":6
					},
					"indices":3
				}
			]
		},
		{
			"name":"Plane.002",
			"primitives":[
				{
					"attributes":{
						"POSITION":7,
						"TEXCOORD_0":8,
						"NORMAL":9
					},
					"indices":3
				}
			]
		},
		{
			"name":"Plane.003",
			"primitives":[
				{
					"attributes":{
						"POSITION":10,
						"TEXCOORD_0":11,
						"NORMAL":12
					},
					"indices":3,
					"material":1
				}
			]
		},
		{
			"name":"Plane.004",
			"primitives":[
				{
					"attributes":{
						"POSITION":13,
						"TEXCOORD_0":14,
						"NORMAL":15
					},
					"indices":16
				}
			]
		},
		{
			"name":"Plane.005",
			"primitives":[
				{
					"attributes":{
						"POSITION":17,
						"TEXCOORD_0":18,
						"NORMAL":19
					},
					"indices":16
				}
			]
		},
		{
			"name":"Plane.006",
			"primitives":[
				{
					"attributes":{
						"POSITION":20,
						"TEXCOORD_0":21,
						"NORMAL":22
					},
					"indices":16
				}
			]
		},
		{
			"name":"Plane.007",
			"primitives":[
				{
					"attributes":{
						"POSITION":23,
						"TEXCOORD_0":24,
						"NORMAL":25
					},
					"indices":16
				}
			]
		},
		{
			"name":"Cube.001",
			"primitives":[
				{
					"attributes":{
						"POSITION":26,
						"TEXCOORD_0":27,
						"NORMAL":28
					},
					"indices":29
				}
			]
		},
		{
			"name":"Plane.008",
			"primitives":[
				{
					"attributes":{
						"POSITION":30,
						"TEXCOORD_0":31,
						"NORMAL":32
					},
					"indices":3,
					"material":2
				}
			]
		},
		{
			"name":"Plane.009",
			"primitives":[
				{
					"attributes":{
						"POSITION":33,
						"TEXCOORD_0":34,
						"NORMAL":35
					},
					"indices":3,
					"material":2
				}
			]
		},
		{
			"name":"Plane.010",
			"primitives":[
				{
					"attributes":{
						"POSITION":36,
						"TEXCOORD_0":37,
						"NORMAL":38
					},
					"indices":3
				}
			]
		},
		{
			"name":"Plane.011",
			"primitives":[
				{
					"attributes":{
						"POSITION":39,
						"TEXCOORD_0":40,
						"NORMAL":41
					},
					"indices":3
				}
			]
		},
		{
			"name":"Plane.012",
			"primitives":[
				{
					"attributes":{
						"POSITION":42,
						"TEXCOORD_0":43,
						"NORMAL":44
					},
					"indices":3
				}
			]
		},
		{
			"name":"Plane.013",
			"primitives":[
				{
					"attributes":{
						"POSITION":45,
						"TEXCOORD_0":46,
						"NORMAL":47
					},
					"indices":3
				}
			]
		},
		{
			"name":"Cube.002",
			"primitives":[
				{
					"attributes":{
						"POSITION":48,
						"TEXCOORD_0":49,
						"NORMAL":50
					},
					"indices":29
				}
			]
		},
		{
			"name":"Cube.003",
			"primitives":[
				{
					"attributes":{
						"POSITION":51,
						"TEXCOORD_0":52,
						"NORMAL":53
					},
					"indices":29
				}
			]
		},
		{
			"name":"Cube.004",
			"primitives":[
				{
					"attributes":{
						"POSITION":54,
						"TEXCOORD_0":55,
						"NORMAL":56
					},
					"indices":29
				}
			]
		},
		{
			"name":"Cube.005",
			"primitives":[
				{
					"attributes":{
						"POSITION":57,
						"TEXCOORD_0":58,
						"NORMAL":59
					},
					"indices":29
				}
			]
		}
	],
	"accessors":[
		{
			"bufferView":0,
			"componentType":5126,
			"count":4,
			"max":[
				1,
				0,
				1
			],
			"min":[
				-1,
				0,
				-1
			],
			"type":"VEC3"
		},
		{
			"bufferView":1,
			"componentType":5126,
			"count":4,
			"type":"VEC2"
		},
		{
			"bufferView":2,
			"componentType":5126,
			"count":4,
			"type":"VEC3"
		},
		{
			"bufferView":3,
			"componentType":5123,
			"count":6,
			"type":"SCALAR"
		},
		{
			"bufferView":4,
			"componentType":5126,
			"count":4,
			"max":[
				1,
				0,
				1
			],
			"min":[
				-1,
				0,
				-1
			],
			"type":"VEC3"
		},
		{
			"bufferView":5,
			"componentType":5126,
			"count":4,
			"type":"VEC2"
		},
		{
			"bufferView":6,
			"componentType":5126,
			"count":4,
			"type":"VEC3"
		},
		{
			"bufferView":7,
			"componentType":5126,
			"count":4,
			"max":[
				1,
				0,
				1
			],
			"min":[
				-1,
				0,
				-1
			],
			"type":"VEC3"
		},
		{
			"bufferView":8,
			"componentType":5126,
			"count":4,
			"type":"VEC2"
		},
		{
			"bufferView":9,
			"componentType":5126,
			"count":4,
			"type":"VEC3"
		},
		{
			"bufferView":10,
			"componentType":5126,
			"count":4,
			"max":[
				1,
				0,
				1
			],
			"min":[
				-1,
				0,
				-1
			],
			"type":"VEC3"
		},
		{
			"bufferView":11,
			"componentType":5126,
			"count":4,
			"type":"VEC2"
		},
		{
			"bufferView":12,
			"componentType":5126,
			"count":4,
			"type":"VEC3"
		},
		{
			"bufferView":13,
			"componentType":5126,
			"count":3,
			"max":[
				1,
				0,
				1
			],
			"min":[
				-1,
				0,
				-1
			],
			"type":"VEC3"
		},
		{
			"bufferView":14,
			"componentType":5126,
			"count":3,
			"type":"VEC2"
		},
		{
			"bufferView":15,
			"componentType":5126,
			"count":3,
			"type":"VEC3"
		},
		{
			"bufferView":16,
			"componentType":5123,
			"count":3,
			"type":"SCALAR"
		},
		{
			"bufferView":17,
			"componentType":5126,
			"count":3,
			"max":[
				1,
				0,
				1
			],
			"min":[
				-1,
				0,
				-1
			],
			"type":"VEC3"
		},
		{
			"bufferView":18,
			"componentType":5126,
			"count":3,
			"type":"VEC2"
		},
		{
			"bufferView":19,
			"componentType":5126,
			"count":3,
			"type":"VEC3"
		},
		{
			"bufferView":20,
			"componentType":5126,
			"count":3,
			"max":[
				1,
				0,
				1
			],
			"min":[
				-1,
				0,
				-1
			],
			"type":"VEC3"
		},
		{
			"bufferView":21,
			"componentType":5126,
			"count":3,
			"type":"VEC2"
		},
		{
			"bufferView":22,
			"componentType":5126,
			"count":3,
			"type":"VEC3"
		},
		{
			"bufferView":23,
			"componentType":5126,
			"count":3,
			"max":[
				1,
				0,
				1
			],
			"min":[
				-1,
				0,
				-1
			],
			"type":"VEC3"
		},
		{
			"bufferView":24,
			"componentType":5126,
			"count":3,
			"type":"VEC2"
		},
		{
			"bufferView":25,
			"componentType":5126,
			"count":3,
			"type":"VEC3"
		},
		{
			"bufferView":26,
			"componentType":5126,
			"count":24,
			"max":[
				1,
				1,
				1
			],
			"min":[
				-1,
				-1,
				-1
			],
			"type":"VEC3"
		},
		{
			"bufferView":27,
			"componentType":5126,
			"count":24,
			"type":"VEC2"
		},
		{
			"bufferView":28,
			"componentType":5126,
			"count":24,
			"type":"VEC3"
		},
		{
			"bufferView":29,
			"componentType":5123,
			"count":36,
			"type":"SCALAR"
		},
		{
			"bufferView":30,
			"componentType":5126,
			"count":4,
			"max":[
				1,
				0,
				1
			],
			"min":[
				-1,
				0,
				-1
			],
			"type":"VEC3"
		},
		{
			"bufferView":31,
			"componentType":5126,
			"count":4,
			"type":"VEC2"
		},
		{
			"bufferView":32,
			"componentType":5126,
			"count":4,
			"type":"VEC3"
		},
		{
			"bufferView":33,
			"componentType":5126,
			"count":4,
			"max":[
				1,
				0,
				1
			],
			"min":[
				-1,
				0,
				-1
			],
			"type":"VEC3"
		},
		{
			"bufferView":34,
			"componentType":5126,
			"count":4,
			"type":"VEC2"
		},
		{
			"bufferView":35,
			"componentType":5126,
			"count":4,
			"type":"VEC3"
		},
		{
			"bufferView":36,
			"componentType":5126,
			"count":4,
			"max":[
				1,
				0,
				1
			],
			"min":[
				-1,
				0,
				-1
			],
			"type":"VEC3"
		},
		{
			"bufferView":37,
			"componentType":5126,
			"count":4,
			"type":"VEC2"
		},
		{
			"bufferView":38,
			"componentType":5126,
			"count":4,
			"type":"VEC3"
		},
		{
			"bufferView":39,
			"componentType":5126,
			"count":4,
			"max":[
				1,
				0,
				1
			],
			"min":[
				-1,
				0,
				-1
			],
			"type":"VEC3"
		},
		{
			"bufferView":40,
			"componentType":5126,
			"count":4,
			"type":"VEC2"
		},
		{
			"bufferView":41,
			"componentType":5126,
			"count":4,
			"type":"VEC3"
		},
		{
			"bufferView":42,
			"componentType":5126,
			"count":4,
			"max":[
				1,
				0,
				1
			],
			"min":[
				-1,
				0,
				-1
			],
			"type":"VEC3"
		},
		{
			"bufferView":43,
			"componentType":5126,
			"count":4,
			"type":"VEC2"
		},
		{
			"bufferView":44,
			"componentType":5126,
			"count":4,
			"type":"VEC3"
		},
		{
			"bufferView":45,
			"componentType":5126,
			"count":4,
			"max":[
				1,
				0,
				1
			],
			"min":[
				-1,
				0,
				-1
			],
			"type":"VEC3"
		},
		{
			"bufferView":46,
			"componentType":5126,
			"count":4,
			"type":"VEC2"
		},
		{
			"bufferView":47,
			"componentType":5126,
			"count":4,
			"type":"VEC3"
		},
		{
			"bufferView":48,
			"componentType":5126,
			"count":24,
			"max":[
				1,
				1,
				1
			],
			"min":[
				-1,
				-1,
				-1
			],
			"type":"VEC3"
		},
		{
			"bufferView":49,
			"componentType":5126,
			"count":24,
			"type":"VEC2"
		},
		{
			"bufferView":50,
			"componentType":5126,
			"count":24,
			"type":"VEC3"
		},
		{
			"bufferView":51,
			"componentType":5126,
			"count":24,
			"max":[
				1,
				1,
				1
			],
			"min":[
				-1,
				-1,
				-1
			],
			"type":"VEC3"
		},
		{
			"bufferView":52,
			"componentType":5126,
			"count":24,
			"type":"VEC2"
		},
		{
			"bufferView":53,
			"componentType":5126,
			"count":24,
			"type":"VEC3"
		},
		{
			"bufferView":54,
			"componentType":5126,
			"count":24,
			"max":[
				1,
				1,
				1
			],
			"min":[
				-1,
				-1,
				-1
			],
			"type":"VEC3"
		},
		{
			"bufferView":55,
			"componentType":5126,
			"count":24,
			"type":"VEC2"
		},
		{
			"bufferView":56,
			"componentType":5126,
			"count":24,
			"type":"VEC3"
		},
		{
			"bufferView":57,
			"componentType":5126,
			"count":24,
			"max":[
				1,
				1,
				1
			],
			"min":[
				-1,
				-1,
				-1
			],
			"type":"VEC3"
		},
		{
			"bufferView":58,
			"componentType":5126,
			"count":24,
			"type":"VEC2"
		},
		{
			"bufferView":59,
			"componentType":5126,
			"count":24,
			"type":"VEC3"
		}
	],
	"bufferViews":[
		{
			"buffer":0,
			"byteLength":48,
			"byteOffset":0,
			"target":34962
		},
		{
			"buffer":0,
			"byteLength":32,
			"byteOffset":48,
			"target":34962
		},
		{
			"buffer":0,
			"byteLength":48,
			"byteOffset":80,
			"target":34962
		},
		{
			"buffer":0,
			"byteLength":12,
			"byteOffset":128,
			"target":34963
		},
		{
			"buffer":0,
			"byteLength":48,
			"byteOffset":140,
			"target":34962
		},
		{
			"buffer":0,
			"byteLength":32,
			"byteOffset":188,
			"target":34962
		},
		{
			"buffer":0,
			"byteLength":48,
			"byteOffset":220,
			"target":34962
		},
		{
			"buffer":0,
			"byteLength":48,
			"byteOffset":268,
			"target":34962
		},
		{
			"buffer":0,
			"byteLength":32,
			"byteOffset":316,
			"target":34962
		},
		{
			"buffer":0,
			"byteLength":48,
			"byteOffset":348,
			"target":34962
		},
		{
			"buffer":0,
			"byteLength":48,
			"byteOffset":396,
			"target":34962
		},
		{
			"buffer":0,
			"byteLength":32,
			"byteOffset":444,
			"target":34962
		},
		{
			"buffer":0,
			"byteLength":48,
			"byteOffset":476,
			"target":34962
		},
		{
			"buffer":0,
			"byteLength":36,
			"byteOffset":524,
			"target":34962
		},
		{
			"buffer":0,
			"byteLength":24,
			"byteOffset":560,
			"target":34962
		},
		{
			"buffer":0,
			"byteLength":36,
			"byteOffset":584,
			"target":34962
		},
		{
			"buffer":0,
			"byteLength":6,
			"byteOffset":620,
			"target":34963
		},
		{
			"buffer":0,
			"byteLength":36,
			"byteOffset":628,
			"target":34962
		},
		{
			"buffer":0,
			"byteLength":24,
			"byteOffset":664,
			"target":34962
		},
		{
			"buffer":0,
			"byteLength":36,
			"byteOffset":688,
			"target":34962
		},
		{
			"buffer":0,
			"byteLength":36,
			"byteOffset":724,
			"target":34962
		},
		{
			"buffer":0,
			"byteLength":24,
			"byteOffset":760,
			"target":34962
		},
		{
			"buffer":0,
			"byteLength":36,
			"byteOffset":784,
			"target":34962
		},
		{
			"buffer":0,
			"byteLength":36,
			"byteOffset":820,
			"target":34962
		},
		{
			"buffer":0,
			"byteLength":24,
			"byteOffset":856,
			"target":34962
		},
		{
			"buffer":0,
			"byteLength":36,
			"byteOffset":880,
			"target":34962
		},
		{
			"buffer":0,
			"byteLength":288,
			"byteOffset":916,
			"target":34962
		},
		{
			"buffer":0,
			"byteLength":192,
			"byteOffset":1204,
			"target":34962
		},
		{
			"buffer":0,
			"byteLength":288,
			"byteOffset":1396,
			"target":34962
		},
		{
			"buffer":0,
			"byteLength":72,
			"byteOffset":1684,
			"target":34963
		},
		{
			"buffer":0,
			"byteLength":48,
			"byteOffset":1756,
			"target":34962
		},
		{
			"buffer":0,
			"byteLength":32,
			"byteOffset":1804,
			"target":34962
		},
		{
			"buffer":0,
			"byteLength":48,
			"byteOffset":1836,
			"target":34962
		},
		{
			"buffer":0,
			"byteLength":48,
			"byteOffset":1884,
			"target":34962
		},
		{
			"buffer":0,
			"byteLength":32,
			"byteOffset":1932,
			"target":34962
		},
		{
			"buffer":0,
			"byteLength":48,
			"byteOffset":1964,
			"target":34962
		},
		{
			"buffer":0,
			"byteLength":48,
			"byteOffset":2012,
			"target":34962
		},
		{
			"buffer":0,
			"byteLength":32,
			"byteOffset":2060,
			"target":34962
		},
		{
			"buffer":0,
			"byteLength":48,
			"byteOffset":2092,
			"target":34962
		},
		{
			"buffer":0,
			"byteLength":48,
			"byteOffset":2140,
			"target":34962
		},
		{
			"buffer":0,
			"byteLength":32,
			"byteOffset":2188,
			"target":34962
		},
		{
			"buffer":0,
			"byteLength":48,
			"byteOffset":2220,
			"target":34962
		},
		{
			"buffer":0,
			"byteLength":48,
			"byteOffset":2268,
			"target":34962
		},
		{
			"buffer":0,
			"byteLength":32,
			"byteOffset":2316,
			"target":34962
		},
		{
			"buffer":0,
			"byteLength":48,
			"byteOffset":2348,
			"target":34962
		},
		{
			"buffer":0,
			"byteLength":48,
			"byteOffset":2396,
			"target":34962
		},
		{
			"buffer":0,
			"byteLength":32,
			"byteOffset":2444,
			"target":34962
		},
		{
			"buffer":0,
			"byteLength":48,
			"byteOffset":2476,
			"target":34962
		},
		{
			"buffer":0,
			"byteLength":288,
			"byteOffset":2524,
			"target":34962
		},
		{
			"buffer":0,
			"byteLength":192,
			"byteOffset":2812,
			"target":34962
		},
		{
			"buffer":0,
			"byteLength":288,
			"byteOffset":3004,
			"target":34962
		},
		{
			"buffer":0,
			"byteLength":288,
			"byteOffset":3292,
			"target":34962
		},
		{
			"buffer":0,
			"byteLength":192,
			"byteOffset":3580,
			"target":34962
		},
		{
			"buffer":0,
			"byteLength":288,
			"byteOffset":3772,
			"target":34962
		},
		{
			"buffer":0,
			"byteLength":288,
			"byteOffset":4060,
			"target":34962
		},
		{
			"buffer":0,
			"byteLength":192,
			"byteOffset":4348,
			"target":34962
		},
		{
			"buffer":0,
			"byteLength":288,
			"byteOffset":4540,
			"target":34962
		},
		{
			"buffer":0,
			"byteLength":288,
			"byteOffset":4828,
			"target":34962
		},
		{
			"buffer":0,
			"byteLength":192,
			"byteOffset":5116,
			"target":34962
		},
		{
			"buffer":0,
			"byteLength":288,
			"byteOffset":5308,
			"target":34962
		}
	],
	"buffers":[
		{
			"byteLength":5596,
			"uri":"data:application/octet-stream;base64,"
		}
	]
}
